<svg xmlns="http://www.w3.org/2000/svg" version="1.1" xmlns:xlink="http://www.w3.org/1999/xlink" xmlns:svgjs="http://svgjs.dev/svgjs" width="1440" height="560" preserveAspectRatio="none" viewBox="0 0 1440 560"><g mask="url(&quot;#SvgjsMask1000&quot;)" fill="none"><rect width="1440" height="560" x="0" y="0" fill="#0e2a47"></rect><path d="M0,564.093C103.925,555.535,191.109,489.371,273.066,424.898C348.708,365.393,418.532,296.783,453.69,207.193C487.806,120.259,475.94,25.853,466.109,-67.016C455.917,-163.297,445.813,-259.978,395.482,-342.687C339.226,-435.133,269.131,-532.485,164.979,-561.866C61.026,-591.191,-46.374,-538.345,-145.427,-495.278C-234.77,-456.433,-304.94,-392.313,-376.654,-326.372C-457.582,-251.958,-569.822,-192.823,-591.562,-85.054C-613.414,23.268,-538.114,124.409,-487.395,222.586C-438.965,316.332,-389.999,411.836,-303.584,472.385C-215.22,534.3,-107.532,572.948,0,564.093" fill="#0b2239"></path><path d="M1440 986.619C1518.657 990.721 1586.585 931.73 1644.802 878.678 1696.661 831.4200000000001 1718.141 763.95 1751.865 702.424 1788.679 635.261 1851.879 577.363 1851.942 500.772 1852.008 421.277 1803.56 350.153 1752.2069999999999 289.471 1700.431 228.289 1637.935 168.678 1559.024 154.642 1482.509 141.03199999999998 1411.931 189.16699999999997 1338.984 215.971 1271.241 240.86200000000002 1189.507 247.781 1146.936 306.05899999999997 1104.854 363.66700000000003 1121.245 442.817 1121.164 514.158 1121.094 575.961 1125.037 636.08 1146.497 694.038 1169.309 755.6469999999999 1201.952 811.629 1248.48 858.011 1304.067 913.423 1361.618 982.5319999999999 1440 986.619" fill="#113255"></path></g><defs><mask id="SvgjsMask1000"><rect width="1440" height="560" fill="#ffffff"></rect></mask></defs></svg>